<svg width="307" height="62" viewBox="0 0 307 62" fill="none" xmlns="http://www.w3.org/2000/svg">
<path d="M45.3525 16.7754L45.0039 16.3867C41.3982 12.3681 35.8647 10.0978 29.9824 10.0977C20.5839 10.0977 13.6688 15.944 11.6699 25.1211H34.8369V33.8242H11.1309C11.6711 39.2356 13.7592 43.7283 16.9922 46.8789C20.2675 50.0706 24.7281 51.8964 29.9756 51.8965C35.8582 51.8965 41.3982 49.6259 44.998 45.6074L45.3467 45.2178V56.1816L45.2725 56.2422C41.3316 59.4151 35.3504 61.2002 28.793 61.2002C20.3146 61.2001 13.3109 58.236 8.42773 52.9678C3.54599 47.701 0.799805 40.1491 0.799805 31C0.799805 21.8509 3.54599 14.299 8.42773 9.03223C13.3109 3.76396 20.3146 0.79987 28.793 0.799805C35.3505 0.799805 41.3316 2.58497 45.2783 5.75781L45.3525 5.81738V16.7754Z" fill="#919191" stroke="#919191" stroke-width="0.4"/>
<path d="M62.0407 17.2417L62.0993 17.3364L71.0495 31.7495L80.405 17.3335L80.4636 17.2417H90.5983L90.3962 17.5513L77.1247 37.8657L91.2448 59.7026L91.444 60.0112H81.0505L80.9919 59.9185L71.0739 44.2056L61.0807 59.9185L61.0212 60.0112H50.8005L50.9987 59.7036L65.0407 37.8628L51.9284 17.5503L51.7292 17.2417H62.0407Z" fill="#919191" stroke="#919191" stroke-width="0.4"/>
<path d="M113.792 16.2178C119.557 16.2178 124.19 18.1208 127.38 21.623C130.567 25.1229 132.293 30.1968 132.293 36.502C132.293 37.7825 132.204 39.2291 131.949 40.8525L131.922 41.0215H103.111C103.468 44.5942 104.539 47.3515 106.333 49.3115C108.57 51.7568 111.961 52.9971 116.587 52.9971C120.606 52.9971 124.635 51.6534 128.593 49.0459L128.903 48.8418V57.7959L128.811 57.8555C125.207 60.1726 121.269 61.0234 115.739 61.0234C109.345 61.0234 103.928 59.1271 100.111 55.3643C96.2929 51.6006 94.0983 45.9933 94.1012 38.6211C94.1012 31.6798 96.0181 26.0767 99.4479 22.207C102.88 18.3348 107.81 16.2178 113.792 16.2178ZM113.874 23.6504C110.331 23.6504 107.618 25.0231 105.785 27.5107C104.55 29.1863 103.709 31.3772 103.289 34.0127H123.442C123.227 30.9589 122.399 28.5221 121.014 26.7842C119.395 24.7519 117 23.6504 113.874 23.6504Z" fill="#919191" stroke="#919191" stroke-width="0.4"/>
<path d="M174.916 17.2361V60.0056H165.958V54.6238C164.871 56.6202 163.404 58.1611 161.545 59.2292C159.463 60.4262 156.905 61.0242 153.872 61.0242C149.168 61.0241 145.631 59.5683 143.274 56.8025C140.921 54.0422 139.769 50.0077 139.766 44.9001V17.2419H148.811V42.864C148.811 46.1523 149.382 48.5981 150.625 50.2195C151.858 51.8291 153.781 52.6618 156.579 52.6619C158.828 52.6619 160.712 52.0383 162.25 50.8093C163.785 49.5835 164.991 47.7433 165.871 45.282V17.2361H174.916Z" fill="#919191" stroke="#919191" stroke-width="0.4"/>
<path d="M197.201 7.07275V17.2417H209.235V25.4331H197.201V46.2466C197.201 48.5134 197.683 50.0159 198.664 50.9565C199.646 51.8989 201.171 52.3198 203.356 52.3198C205.613 52.3198 207.45 51.9042 209.797 50.8149L210.082 50.6831V59.1851L209.953 59.2339C207.216 60.2608 204.314 60.7699 201.238 60.7759C196.975 60.7759 193.673 59.8171 191.439 57.6802C189.203 55.5416 188.074 52.2588 188.074 47.6948V25.4331H181.376V17.2417H188.074V7.07275H197.201Z" fill="#919191" stroke="#919191" stroke-width="0.4"/>
<path d="M224.317 17.2419V60.0115H215.273V17.2419H224.317ZM219.798 0.80542C221.541 0.805509 222.992 1.41653 224.007 2.45386C225.021 3.49059 225.588 4.94078 225.588 6.59644C225.588 8.25188 225.021 9.70139 224.007 10.738C222.992 11.7754 221.541 12.3864 219.798 12.3865C216.379 12.3865 214.001 9.92335 214.007 6.59546C214.007 3.2685 216.378 0.80542 219.798 0.80542Z" fill="#919191" stroke="#919191" stroke-width="0.4"/>
<path d="M265.415 29.3367L265.08 29.0291C261.982 26.187 258.218 24.7625 253.858 24.7625C249.843 24.7625 246.83 26.1818 244.818 28.6082C242.802 31.0398 241.77 34.5059 241.77 38.6267C241.77 42.7473 242.802 46.2127 244.818 48.6443C246.83 51.0706 249.843 52.491 253.858 52.491C258.136 52.4909 261.815 51.1479 265.086 48.3835L265.415 48.1052V58.158L265.298 58.2107C261.12 60.0866 256.943 61.0232 252.758 61.0232C246.483 61.0232 241.322 58.8245 237.731 54.9138C234.142 51.0047 232.138 45.4034 232.137 38.6267C232.137 31.8501 234.14 26.2473 237.728 22.3367C241.318 18.4242 246.48 16.2234 252.758 16.2234C257.279 16.2234 261.465 17.2494 265.306 19.2117L265.415 19.2673V29.3367Z" fill="#919191" stroke="#919191" stroke-width="0.4"/>
<path d="M289.283 16.2234C294.87 16.2234 299.185 17.802 302.103 20.7302C305.02 23.6582 306.514 27.9093 306.514 33.2009V60.0056H297.723V54.822C294.58 58.9557 290.321 61.0232 284.958 61.0232C280.847 61.0231 277.593 59.6724 275.367 57.3503C273.143 55.0296 271.965 51.7578 271.965 47.948C271.965 43.7034 273.424 40.2528 276.317 37.8679C279.203 35.4877 283.492 34.1892 289.113 34.1892C292.09 34.1892 294.988 34.5077 297.729 35.2302V33.7947C297.729 30.597 297.075 28.3095 295.635 26.8181C294.196 25.3281 291.93 24.5916 288.607 24.5916C284.337 24.5916 279.968 26.0971 275.331 29.2175L275.02 29.4275V20.9119L275.086 20.8523C279.031 17.3304 283.494 16.2234 289.283 16.2234ZM290.808 40.6921C287.437 40.6921 285.053 41.3251 283.514 42.4841C281.986 43.6351 281.263 45.3274 281.263 47.5242C281.263 49.3133 281.721 50.759 282.69 51.7576C283.658 52.755 285.167 53.3386 287.336 53.3386C289.67 53.3386 291.704 52.7138 293.436 51.4695C295.161 50.23 296.597 48.3667 297.729 45.8669V41.6609C295.502 41.0174 293.198 40.6921 290.808 40.6921Z" fill="#919191" stroke="#919191" stroke-width="0.4"/>
</svg>
