<svg width="215" height="34" viewBox="0 0 215 34" fill="none" xmlns="http://www.w3.org/2000/svg">
<path d="M12.6877 34C8.64369 34 5.51035 32.8958 3.28769 30.6874C1.0959 28.4484 0 25.2738 0 21.1637V1.05819H5.78819V20.6576C5.78819 23.2648 6.37472 25.2585 7.5478 26.6387C8.75174 28.0189 10.465 28.7091 12.6877 28.7091C14.9104 28.7091 16.6082 28.0189 17.7813 26.6387C18.9853 25.2278 19.5872 23.2341 19.5872 20.6576V1.05819H25.3754V21.1637C25.3754 25.2738 24.2795 28.4484 22.0877 30.6874C19.8959 32.8958 16.7626 34 12.6877 34Z" fill="#000000"/>
<path d="M46.8112 33.2639V20.8877C46.8112 19.7221 46.6878 18.7406 46.4408 17.9432C46.2247 17.1457 45.8851 16.5016 45.4221 16.0108C44.9899 15.4894 44.4805 15.106 43.894 14.8606C43.3074 14.6152 42.6746 14.4926 41.9955 14.4926C40.1741 14.4926 38.7695 15.1673 37.7817 16.5169C36.7938 17.8665 36.2999 19.7528 36.2999 22.1759H35.0033C35.0033 20.2436 35.1886 18.5106 35.559 16.977C35.9603 15.4127 36.5314 14.1092 37.2723 13.0663C38.0441 11.9928 38.9856 11.18 40.0969 10.6279C41.2083 10.0451 42.4739 9.75372 43.894 9.75372C45.0979 9.75372 46.2093 9.96843 47.228 10.3978C48.2467 10.7966 49.1265 11.41 49.8674 12.2382C50.6083 13.0663 51.1794 14.0938 51.5807 15.3207C51.982 16.5169 52.1827 17.9278 52.1827 19.5534V33.2639H46.8112ZM30.9284 33.2639V10.2598H36.2999V33.2639H30.9284Z" fill="#000000"/>
<path d="M58.9501 10.2598H64.5994V33.2639H58.9501V10.2598ZM58.3945 3.35859C58.3945 1.38024 59.7836 0 61.7748 0C63.7659 0 65.1088 1.38024 65.1088 3.35859C65.1088 5.33694 63.7659 6.67118 61.7748 6.67118C59.7836 6.67118 58.3945 5.33694 58.3945 3.35859Z" fill="#000000"/>
<path d="M98.7334 33.2639V20.8877C98.7334 18.5873 98.3475 16.9463 97.5758 15.9648C96.8349 14.9833 95.7853 14.4926 94.427 14.4926C92.6983 14.4926 91.34 15.1673 90.3521 16.5169C89.3643 17.8665 88.8704 19.7528 88.8704 22.1759H87.5738C87.5738 20.2436 87.759 18.5106 88.1295 16.977C88.5308 15.4127 89.1019 14.1092 89.8428 13.0663C90.5837 11.9928 91.4943 11.18 92.5748 10.6279C93.6861 10.0451 94.9364 9.75372 96.3255 9.75372C98.7026 9.75372 100.586 10.5819 101.975 12.2382C103.395 13.8945 104.105 16.3329 104.105 19.5534V33.2639H98.7334ZM83.4989 33.2639V10.2598H88.8704V33.2639H83.4989ZM113.968 33.2639V20.8877C113.968 18.5873 113.582 16.9463 112.81 15.9648C112.069 14.9833 111.02 14.4926 109.662 14.4926C107.902 14.4926 106.528 15.1673 105.54 16.5169C104.583 17.8665 104.105 19.7528 104.105 22.1759H102.808C102.808 20.2436 102.994 18.5106 103.364 16.977C103.734 15.4127 104.29 14.1092 105.031 13.0663C105.803 11.9928 106.729 11.18 107.809 10.6279C108.921 10.0451 110.171 9.75372 111.56 9.75372C113.937 9.75372 115.82 10.5819 117.209 12.2382C118.629 13.8945 119.339 16.3329 119.339 19.5534V33.2639H113.968Z" fill="#000000"/>
<path d="M139.51 33.2639V18.3572C139.51 16.9157 139.093 15.8268 138.26 15.0907C137.457 14.3239 136.33 13.9405 134.88 13.9405C134.231 13.9405 133.629 14.0171 133.074 14.1705C132.549 14.3239 132.086 14.5539 131.684 14.8606C131.283 15.1673 130.959 15.5354 130.712 15.9648C130.465 16.3636 130.295 16.8236 130.203 17.3451H124.924C125.047 16.1795 125.356 15.1213 125.85 14.1705C126.375 13.2197 127.054 12.4069 127.887 11.7321C128.752 11.0573 129.771 10.5359 130.944 10.1678C132.117 9.79973 133.429 9.6157 134.88 9.6157C136.392 9.6157 137.766 9.81507 139.001 10.2138C140.236 10.6125 141.285 11.18 142.15 11.9161C143.014 12.6522 143.678 13.5417 144.141 14.5846C144.604 15.6274 144.835 16.8083 144.835 18.1272V33.2639H139.51ZM131.638 33.908C129.385 33.908 127.563 33.2945 126.174 32.0677C124.785 30.8101 124.09 29.1691 124.09 27.1448C124.09 25.8872 124.399 24.783 125.016 23.8322C125.634 22.8814 126.606 22.0839 127.934 21.4398C129.261 20.765 130.959 20.2589 133.027 19.9215C135.127 19.5841 137.673 19.4154 140.668 19.4154V23.1881C138.816 23.1881 137.195 23.2494 135.806 23.3721C134.417 23.4948 133.259 23.7095 132.333 24.0162C131.407 24.2923 130.697 24.6757 130.203 25.1664C129.74 25.6265 129.508 26.2246 129.508 26.9608C129.508 27.8809 129.832 28.6017 130.481 29.1231C131.16 29.6446 132.086 29.9053 133.259 29.9053C134.154 29.9053 134.972 29.7519 135.713 29.4452C136.485 29.1385 137.149 28.7091 137.704 28.157C138.26 27.5742 138.692 26.8994 139.001 26.1326C139.34 25.3658 139.51 24.5223 139.51 23.6022H140.575C140.575 25.2278 140.359 26.6847 139.927 27.9729C139.526 29.2612 138.924 30.35 138.121 31.2395C137.349 32.0983 136.408 32.7578 135.296 33.2179C134.216 33.6779 132.996 33.908 131.638 33.908Z" fill="#000000"/>
<path d="M148.022 14.8606V10.2598H163.396V14.8606H148.022ZM163.488 33.2639H159.043C156.543 33.2639 154.69 32.6811 153.486 31.5156C152.313 30.35 151.727 28.571 151.727 26.1786V3.35859H157.098V24.9364C157.098 26.2553 157.33 27.1908 157.793 27.7429C158.287 28.295 159.105 28.571 160.247 28.571H163.488V33.2639Z" fill="#000000"/>
<path d="M183.824 24.4763H189.334C189.242 25.8566 188.887 27.1295 188.269 28.295C187.652 29.4299 186.849 30.4267 185.862 31.2855C184.874 32.1137 183.716 32.7578 182.389 33.2179C181.092 33.6779 179.687 33.908 178.175 33.908C176.477 33.908 174.903 33.6013 173.452 32.9878C172.001 32.3744 170.751 31.5462 169.701 30.5034C168.651 29.4299 167.833 28.157 167.247 26.6847C166.691 25.1818 166.413 23.5408 166.413 21.7618C166.413 19.9829 166.707 18.3572 167.293 16.885C167.88 15.382 168.682 14.1092 169.701 13.0663C170.751 11.9928 172.001 11.1493 173.452 10.5359C174.903 9.92242 176.492 9.6157 178.221 9.6157C179.703 9.6157 181.092 9.84574 182.389 10.3058C183.716 10.7659 184.874 11.41 185.862 12.2382C186.849 13.0663 187.652 14.0631 188.269 15.2287C188.887 16.3942 189.242 17.6518 189.334 19.0014H183.824C183.762 18.2959 183.577 17.6671 183.268 17.115C182.96 16.5323 182.558 16.0415 182.064 15.6428C181.571 15.2134 180.999 14.8913 180.351 14.6766C179.703 14.4619 179.008 14.3545 178.267 14.3545C177.31 14.3545 176.431 14.5386 175.628 14.9066C174.856 15.244 174.193 15.7501 173.637 16.4249C173.081 17.069 172.649 17.8511 172.34 18.7713C172.063 19.6608 171.924 20.6576 171.924 21.7618C171.924 22.866 172.063 23.8782 172.34 24.7984C172.649 25.6879 173.081 26.4547 173.637 27.0988C174.193 27.7429 174.856 28.249 175.628 28.617C176.431 28.9544 177.31 29.1231 178.267 29.1231C179.008 29.1231 179.703 29.0158 180.351 28.8011C180.999 28.5864 181.571 28.2797 182.064 27.8809C182.558 27.4515 182.96 26.9608 183.268 26.4087C183.577 25.8259 183.762 25.1818 183.824 24.4763Z" fill="#000000"/>
<path d="M209.629 33.2639V20.8877C209.629 19.7221 209.505 18.7406 209.258 17.9432C209.042 17.1457 208.702 16.5016 208.239 16.0108C207.807 15.4894 207.298 15.106 206.711 14.8606C206.125 14.6152 205.492 14.4926 204.813 14.4926C202.991 14.4926 201.587 15.1673 200.599 16.5169C199.611 17.8665 199.117 19.7528 199.117 22.1759H197.821C197.821 20.2436 198.006 18.5106 198.376 16.977C198.778 15.4127 199.349 14.1092 200.09 13.0663C200.861 11.9928 201.803 11.18 202.914 10.6279C204.026 10.0451 205.291 9.75372 206.711 9.75372C207.915 9.75372 209.027 9.96843 210.045 10.3978C211.064 10.7966 211.944 11.41 212.685 12.2382C213.426 13.0663 213.997 14.0938 214.398 15.3207C214.799 16.5169 215 17.9278 215 19.5534V33.2639H209.629ZM193.746 33.2639V1.05819H199.117V33.2639H193.746Z" fill="#000000"/>
</svg>
