<svg width="353" height="120" viewBox="0 0 353 120" fill="none" xmlns="http://www.w3.org/2000/svg">
<path d="M103.31 59.7775C103.31 69.7255 103.315 79.6732 103.324 89.6206C103.324 90.6188 102.953 91.2248 102.097 91.7008C85.6537 100.841 69.2183 109.997 52.7906 119.169C51.8859 119.673 51.108 119.693 50.1955 119.175C33.8789 109.976 17.5557 100.793 1.2259 91.6248C1.0525 91.5375 0.883912 91.4407 0.720868 91.3349C0.277126 91.0135 -0.00517608 90.5978 0.0146801 90.0171C0.0215866 89.8215 0.0146801 89.625 0.0146801 89.4285C0.0146801 69.5988 0.0097842 49.7689 0 29.9387C0 28.9344 0.38245 28.3344 1.23368 27.8611C17.6838 18.7125 34.1264 9.54955 50.5616 0.372368C51.4404 -0.117551 52.2139 -0.130651 53.1032 0.372368C69.4485 9.58098 85.7985 18.7797 102.153 27.9685C102.304 28.0559 102.456 28.1353 102.599 28.2305C103.062 28.5405 103.317 28.9684 103.31 29.5405C103.31 29.8243 103.31 30.1081 103.31 30.391V59.7775ZM28.7517 32.852C36.3644 50.0027 43.946 67.0913 51.5811 84.2891C59.3458 67.0852 67.0543 49.9992 74.7913 32.852H28.7517ZM99.4155 86.7509C99.2731 86.13 77.2517 36.5268 76.9297 36.0736C76.5455 36.732 58.0922 77.5386 54.2634 86.2008C54.203 86.3388 54.1555 86.4828 54.1055 86.6252C54.1003 86.6409 54.1158 86.6662 54.1245 86.6855C54.1331 86.7047 54.1426 86.723 54.1581 86.7536L99.4155 86.7509ZM26.7411 36.2849C19.1742 53.0522 11.6685 69.692 4.16289 86.33C4.11941 86.4286 4.08108 86.5295 4.04807 86.6322C4.04203 86.6488 4.05843 86.6732 4.06706 86.6933C4.07511 86.7078 4.08435 86.7215 4.09469 86.7344H49.1319C41.6686 69.9199 34.232 53.164 26.7411 36.2849ZM49.9642 115.293C50.0962 115.031 50.0505 114.832 50.0505 114.641C50.0505 106.659 50.0505 98.6784 50.0505 90.6983C50.0505 90.5673 50.0453 90.4363 50.0505 90.3061C50.0574 90.1105 49.9642 90.0302 49.776 90.0441C49.6689 90.0494 49.561 90.0441 49.4531 90.0441C34.8574 90.0441 20.2616 90.0441 5.66591 90.0441C5.53469 90.0441 5.37153 89.9647 5.24203 90.1524L49.9642 115.293ZM53.3449 115.118L98.1508 90.1507C98.1387 90.1149 98.1257 90.0782 98.1128 90.0424H53.9423C53.1938 90.0424 53.275 89.9472 53.2741 90.7603C53.2741 98.6356 53.2741 106.511 53.2741 114.386C53.2724 114.599 53.2335 114.813 53.3483 115.116L53.3449 115.118ZM30.405 29.5038C32.1696 29.654 72.8324 29.5911 73.3357 29.4304L52.0525 3.85595L30.405 29.5038ZM3.23655 80.1715L3.37987 80.2004L24.7572 32.8258H4.09814C3.23483 32.8258 3.23483 32.8258 3.23483 33.6659V80.1715H3.23655ZM99.9568 79.7882L100.091 79.7471V33.5009C100.091 33.3917 100.083 33.2825 100.091 33.1742C100.11 32.9402 100.052 32.7882 99.7764 32.8249C99.6901 32.8306 99.6036 32.8306 99.5174 32.8249C92.8768 32.8249 86.2365 32.8249 79.5965 32.8249C79.4618 32.8249 79.3003 32.7568 79.1648 32.9411C86.0914 48.5521 93.0221 64.1678 99.9568 79.7882ZM44.7049 7.52816L44.6021 7.43209C31.474 14.7567 18.3462 22.0819 5.21872 29.4077C5.20352 29.422 5.19452 29.4418 5.19369 29.4627C5.18937 29.5501 5.26707 29.4627 5.19886 29.5405C5.29297 29.5405 5.37584 29.5518 5.45786 29.5518C12.1848 29.5518 18.9123 29.5553 25.6404 29.5623C26.0392 29.5623 26.2602 29.3946 26.4959 29.1134C31.6976 22.9421 36.9031 16.7729 42.1123 10.6056C42.9774 9.5804 43.8415 8.55457 44.7049 7.52816ZM98.0575 29.5527C98.0247 29.4505 98.0239 29.3929 97.9988 29.378C85.3024 22.2403 72.6025 15.1043 59.8991 7.97004C59.8862 7.96306 59.8603 7.97528 59.843 7.98402C59.8251 7.99505 59.8086 8.00825 59.7938 8.02331C59.8361 8.20321 59.982 8.31063 60.0917 8.44162C60.8945 9.41098 61.7003 10.3789 62.5089 11.3453C67.4229 17.2506 72.3349 23.1599 77.2448 29.0732C77.5349 29.4226 77.8267 29.5658 78.2808 29.5649C84.6865 29.5509 91.092 29.5477 97.4972 29.5553L98.0575 29.5527Z" fill="#0E0E0E"/>
<path d="M140.326 59.6043C140.326 53.1067 140.326 46.6082 140.326 40.109C140.326 38.6994 140.345 38.67 141.645 38.6822C142.639 38.6822 143.876 38.2574 144.56 38.8615C145.245 39.4656 144.817 40.826 144.824 41.8328C144.853 46.6754 144.824 51.5203 144.841 56.3628C144.841 57.6643 144.867 57.6791 146.085 57.6963C147.381 57.7135 148.681 57.6299 149.972 57.7233C150.966 57.7945 151.297 57.3377 151.443 56.4193C151.954 53.2589 153.256 50.2944 155.219 47.8246C159.232 42.6825 164.515 39.9297 170.758 38.9696C175.794 38.1703 180.944 38.9831 185.526 41.3C191.078 44.0577 195.204 48.3084 196.875 54.612C198.95 62.3792 196.639 68.9431 191.028 74.1736C185.418 79.4041 178.691 81.2532 171.23 80.3545C165.537 79.6718 160.608 77.3414 156.581 73.0808C153.981 70.381 152.207 66.9398 151.485 63.192C151.171 61.586 151.566 61.6032 149.552 61.6056C148.313 61.6056 147.074 61.64 145.839 61.6056C145.077 61.5786 144.808 61.8684 144.824 62.6665C144.865 64.6875 144.824 66.7109 144.824 68.7344C144.824 72.2901 144.794 75.8557 144.846 79.4016C144.86 80.3667 144.593 80.7228 143.666 80.6295C142.618 80.5263 141.291 81.0568 140.583 80.4158C139.875 79.7749 140.328 78.3408 140.323 77.2603C140.311 71.3668 140.326 65.4905 140.326 59.6043ZM172.91 76.5604C179.047 76.5604 183.414 75.0527 186.966 72.1796C195.178 65.5494 195.166 53.7329 186.935 47.1125C184.142 44.8493 180.809 43.4198 177.293 42.9771C170.722 42.1054 164.906 43.8072 160.155 48.6792C154.037 54.9484 154.077 64.3559 160.155 70.6669C164.068 74.7212 168.9 76.4573 172.91 76.5604Z" fill="#0E0E0E"/>
<path d="M264.672 72.7771C265.21 72.2393 265.673 71.7948 266.112 71.3381C276.044 60.8607 285.979 50.3833 295.916 39.9059C296.355 39.4418 296.681 38.7346 297.403 38.7002C298.276 38.6609 299.291 38.4547 299.999 38.8451C300.611 39.1889 300.235 40.3185 300.235 41.0797C300.249 53.5887 300.249 66.0986 300.235 78.6093C300.235 79.039 300.214 79.4687 300.235 79.896C300.268 80.4583 300.023 80.6327 299.508 80.6327C298.328 80.6106 297.148 80.6327 295.824 80.6327V46.6467C294.939 46.7989 294.629 47.4521 294.209 47.8941C284.27 58.3674 274.312 68.8235 264.469 79.3828C263.223 80.7162 261.929 80.6106 260.489 80.6106C260.416 80.6203 260.342 80.6126 260.272 80.5882C260.202 80.5638 260.139 80.5233 260.086 80.4697C260.033 80.4161 259.993 80.3507 259.968 80.2786C259.943 80.2065 259.934 80.1294 259.942 80.0532C259.942 79.6235 259.942 79.1961 259.942 78.7664V40.5027C259.942 40.1343 259.956 39.766 259.942 39.3976C259.92 38.8279 260.216 38.6413 260.709 38.6732C260.768 38.6732 260.827 38.6732 260.886 38.6732C262 38.7027 263.4 38.3171 264.15 38.877C264.981 39.4983 264.433 41.0453 264.438 42.1774C264.469 51.7544 264.452 61.3117 264.462 70.8789C264.455 71.456 264.301 72.0723 264.672 72.7771Z" fill="#0E0E0E"/>
<path d="M212.367 38.6733C212.662 39.3535 212.544 39.9748 212.544 40.5789C212.544 45.667 212.544 50.755 212.544 55.8431C212.544 57.6848 212.544 57.6996 214.231 57.6996C223.605 57.6996 232.977 57.6996 242.348 57.6996C244.13 57.6996 243.946 57.7757 243.946 55.9953C243.946 50.7231 243.946 45.4484 243.946 40.1761C243.946 38.7027 243.96 38.6487 245.362 38.6855C246.339 38.7101 247.562 38.2313 248.23 38.9508C248.829 39.5966 248.416 40.8244 248.419 41.7944C248.433 54.0562 248.433 66.3181 248.419 78.5799C248.419 79.0072 248.402 79.4369 248.419 79.8666C248.442 80.4191 248.197 80.6327 247.68 80.6205C246.913 80.6033 246.148 80.6205 245.381 80.6205C243.818 80.6205 243.934 80.7138 243.934 79.1471C243.934 74.059 243.934 68.9709 243.934 63.8829C243.934 61.6114 243.934 61.6089 241.81 61.6089H214.774C214.479 61.6089 214.184 61.6089 213.889 61.6089C212.581 61.6531 212.558 61.6531 212.555 63.0823C212.555 68.3546 212.555 73.6415 212.555 78.9015V80.2988C212.39 80.4265 212.319 80.5444 212.22 80.5444C210.934 80.591 209.645 80.6794 208.361 80.5001C207.917 79.2011 208.172 77.8579 208.17 76.5392C208.145 64.5885 208.139 52.6336 208.153 40.6746C208.153 40.2449 208.172 39.8152 208.153 39.3854C208.127 38.8378 208.359 38.6315 208.88 38.6487C210.051 38.688 211.227 38.6733 212.367 38.6733Z" fill="#0E0E0E"/>
<path d="M311.924 42.7241C311.792 41.4326 311.778 40.131 311.882 38.8368C312.427 38.5446 312.963 38.6796 313.477 38.6796C325.74 38.6698 338.002 38.6698 350.263 38.6796C350.499 38.6968 350.736 38.6968 350.971 38.6796C351.946 38.5298 352.128 39.0357 352.135 39.9443C352.156 42.7363 352.189 42.7363 349.444 42.7363C344.959 42.7363 340.475 42.7363 335.99 42.7363C333.967 42.7363 334.173 42.4908 334.173 44.5658C334.173 55.9108 334.173 67.2559 334.173 78.6009C334.173 80.6268 334.173 80.6268 332.216 80.6293C329.702 80.6293 329.702 80.6293 329.702 78.0435V44.9194C329.702 44.4897 329.676 44.0575 329.702 43.6326C329.756 42.896 329.405 42.702 328.758 42.7142C326.931 42.7462 325.104 42.7142 323.277 42.7142L311.924 42.7241Z" fill="#0E0E0E"/>
</svg>
