<svg width="198" height="36" viewBox="0 0 198 36" fill="none" xmlns="http://www.w3.org/2000/svg">
<path d="M74.7306 28C72.2666 28 70.3575 27.318 69.0032 25.954C67.6677 24.571 67 22.6103 67 20.0717V7.65359H70.5268V19.7591C70.5268 21.3694 70.8841 22.6008 71.5989 23.4533C72.3325 24.3058 73.3764 24.7321 74.7306 24.7321C76.0849 24.7321 77.1194 24.3058 77.8342 23.4533C78.5678 22.5819 78.9345 21.3505 78.9345 19.7591V7.65359H82.4613V20.0717C82.4613 22.6103 81.7936 24.571 80.4581 25.954C79.1226 27.318 77.2135 28 74.7306 28Z" fill="white"/>
<path d="M95.5222 27.5453V19.9012C95.5222 19.1813 95.447 18.5751 95.2965 18.0825C95.1648 17.59 94.9579 17.1922 94.6758 16.889C94.4124 16.567 94.1021 16.3302 93.7447 16.1786C93.3873 16.0271 93.0017 15.9513 92.5879 15.9513C91.4782 15.9513 90.6224 16.3681 90.0205 17.2016C89.4186 18.0352 89.1176 19.2003 89.1176 20.6969H88.3276C88.3276 19.5034 88.4405 18.433 88.6662 17.4858C88.9107 16.5196 89.2587 15.7145 89.7101 15.0704C90.1803 14.4073 90.754 13.9053 91.4312 13.5643C92.1083 13.2043 92.8795 13.0244 93.7447 13.0244C94.4783 13.0244 95.1554 13.157 95.7761 13.4222C96.3968 13.6685 96.9329 14.0474 97.3843 14.5589C97.8357 15.0704 98.1837 15.705 98.4282 16.4628C98.6728 17.2016 98.795 18.0731 98.795 19.0771V27.5453H95.5222ZM85.8448 27.5453V13.3369H89.1176V27.5453H85.8448Z" fill="white"/>
<path d="M102.918 13.3369H106.361V27.5453H102.918V13.3369ZM102.58 9.07442C102.58 7.8525 103.426 7 104.64 7C105.853 7 106.671 7.8525 106.671 9.07442C106.671 10.2963 105.853 11.1204 104.64 11.1204C103.426 11.1204 102.58 10.2963 102.58 9.07442Z" fill="white"/>
<path d="M127.159 27.5453V19.9012C127.159 18.4804 126.923 17.4668 126.453 16.8606C126.002 16.2544 125.362 15.9513 124.535 15.9513C123.481 15.9513 122.654 16.3681 122.052 17.2016C121.45 18.0352 121.149 19.2003 121.149 20.6969H120.359C120.359 19.5034 120.472 18.433 120.697 17.4858C120.942 16.5196 121.29 15.7145 121.741 15.0704C122.193 14.4073 122.748 13.9053 123.406 13.5643C124.083 13.2043 124.845 13.0244 125.691 13.0244C127.14 13.0244 128.287 13.5359 129.133 14.5589C129.999 15.5819 130.431 17.088 130.431 19.0771V27.5453H127.159ZM117.876 27.5453V13.3369H121.149V27.5453H117.876ZM136.441 27.5453V19.9012C136.441 18.4804 136.206 17.4668 135.736 16.8606C135.284 16.2544 134.645 15.9513 133.817 15.9513C132.745 15.9513 131.908 16.3681 131.306 17.2016C130.723 18.0352 130.431 19.2003 130.431 20.6969H129.641C129.641 19.5034 129.754 18.433 129.98 17.4858C130.206 16.5196 130.544 15.7145 130.996 15.0704C131.466 14.4073 132.03 13.9053 132.688 13.5643C133.366 13.2043 134.127 13.0244 134.974 13.0244C136.422 13.0244 137.569 13.5359 138.416 14.5589C139.281 15.5819 139.714 17.088 139.714 19.0771V27.5453H136.441Z" fill="white"/>
<path d="M152.004 27.5453V18.3383C152.004 17.4479 151.75 16.7754 151.242 16.3207C150.753 15.8471 150.066 15.6103 149.182 15.6103C148.787 15.6103 148.421 15.6576 148.082 15.7524C147.762 15.8471 147.48 15.9892 147.236 16.1786C146.991 16.3681 146.794 16.5954 146.643 16.8606C146.493 17.1069 146.389 17.3911 146.333 17.7131H143.116C143.192 16.9932 143.38 16.3396 143.681 15.7524C144 15.1651 144.414 14.6631 144.922 14.2463C145.449 13.8295 146.069 13.5074 146.784 13.2801C147.499 13.0528 148.298 12.9391 149.182 12.9391C150.104 12.9391 150.941 13.0622 151.693 13.3085C152.446 13.5548 153.085 13.9053 153.612 14.3599C154.139 14.8146 154.543 15.364 154.825 16.0081C155.107 16.6522 155.248 17.3816 155.248 18.1962V27.5453H152.004ZM147.207 27.9432C145.834 27.9432 144.725 27.5643 143.878 26.8065C143.032 26.0298 142.609 25.0162 142.609 23.7659C142.609 22.9892 142.797 22.3072 143.173 21.7199C143.549 21.1326 144.142 20.6401 144.95 20.2422C145.759 19.8254 146.794 19.5129 148.054 19.3045C149.333 19.0961 150.885 18.9919 152.709 18.9919V21.3221C151.581 21.3221 150.593 21.3599 149.747 21.4357C148.9 21.5115 148.195 21.6441 147.631 21.8336C147.066 22.0041 146.634 22.2409 146.333 22.544C146.051 22.8281 145.91 23.1976 145.91 23.6522C145.91 24.2206 146.107 24.6658 146.502 24.9878C146.916 25.3099 147.48 25.4709 148.195 25.4709C148.74 25.4709 149.239 25.3762 149.69 25.1867C150.161 24.9973 150.565 24.7321 150.903 24.3911C151.242 24.0311 151.505 23.6143 151.693 23.1407C151.9 22.6671 152.004 22.1461 152.004 21.5778H152.653C152.653 22.5819 152.521 23.4817 152.258 24.2774C152.013 25.0731 151.646 25.7456 151.157 26.295C150.687 26.8254 150.113 27.2327 149.436 27.5169C148.778 27.8011 148.035 27.9432 147.207 27.9432Z" fill="white"/>
<path d="M157.19 16.1786V13.3369H166.557V16.1786H157.19ZM166.614 27.5453H163.905C162.382 27.5453 161.253 27.1854 160.52 26.4655C159.805 25.7456 159.448 24.6468 159.448 23.1691V9.07442H162.72V22.4019C162.72 23.2165 162.861 23.7943 163.144 24.1353C163.444 24.4763 163.943 24.6468 164.639 24.6468H166.614V27.5453Z" fill="white"/>
<path d="M179.004 22.1177H182.362C182.306 22.9702 182.089 23.7564 181.713 24.4763C181.337 25.1773 180.848 25.793 180.246 26.3234C179.644 26.8349 178.939 27.2327 178.13 27.5169C177.34 27.8011 176.484 27.9432 175.562 27.9432C174.528 27.9432 173.569 27.7537 172.685 27.3748C171.8 26.9959 171.039 26.4844 170.399 25.8403C169.76 25.1773 169.261 24.3911 168.904 23.4817C168.565 22.5535 168.396 21.5399 168.396 20.4411C168.396 19.3424 168.575 18.3383 168.932 17.429C169.289 16.5007 169.778 15.7145 170.399 15.0704C171.039 14.4073 171.8 13.8863 172.685 13.5074C173.569 13.1286 174.537 12.9391 175.591 12.9391C176.493 12.9391 177.34 13.0812 178.13 13.3654C178.939 13.6495 179.644 14.0474 180.246 14.5589C180.848 15.0704 181.337 15.6861 181.713 16.406C182.089 17.1258 182.306 17.9026 182.362 18.7361H179.004C178.967 18.3004 178.854 17.912 178.666 17.571C178.478 17.2111 178.233 16.908 177.932 16.6617C177.631 16.3965 177.283 16.1976 176.888 16.065C176.493 15.9323 176.07 15.866 175.619 15.866C175.036 15.866 174.5 15.9797 174.011 16.207C173.54 16.4154 173.136 16.728 172.797 17.1448C172.459 17.5426 172.195 18.0257 172.007 18.594C171.838 19.1434 171.753 19.7591 171.753 20.4411C171.753 21.1231 171.838 21.7483 172.007 22.3166C172.195 22.866 172.459 23.3396 172.797 23.7375C173.136 24.1353 173.54 24.4479 174.011 24.6752C174.5 24.8836 175.036 24.9878 175.619 24.9878C176.07 24.9878 176.493 24.9215 176.888 24.7889C177.283 24.6563 177.631 24.4668 177.932 24.2206C178.233 23.9553 178.478 23.6522 178.666 23.3112C178.854 22.9513 178.967 22.5534 179.004 22.1177Z" fill="white"/>
<path d="M194.727 27.5453V19.9012C194.727 19.1813 194.652 18.5751 194.501 18.0825C194.37 17.59 194.163 17.1922 193.881 16.889C193.617 16.567 193.307 16.3302 192.95 16.1786C192.592 16.0271 192.207 15.9513 191.793 15.9513C190.683 15.9513 189.827 16.3681 189.225 17.2016C188.624 18.0352 188.323 19.2003 188.323 20.6969H187.533C187.533 19.5034 187.645 18.433 187.871 17.4858C188.116 16.5196 188.464 15.7145 188.915 15.0704C189.385 14.4073 189.959 13.9053 190.636 13.5643C191.313 13.2043 192.084 13.0244 192.95 13.0244C193.683 13.0244 194.36 13.157 194.981 13.4222C195.602 13.6685 196.138 14.0474 196.589 14.5589C197.041 15.0704 197.389 15.705 197.633 16.4628C197.878 17.2016 198 18.0731 198 19.0771V27.5453H194.727ZM185.05 27.5453V7.65359H188.323V27.5453H185.05Z" fill="white"/>
<path d="M33.4246 10.9608C34.8572 9.35781 33.4128 6.85597 31.3084 7.29537L20.2913 9.59628C19.599 9.74085 18.8788 9.5478 18.3516 9.07652L9.96076 1.5754C8.35781 0.142783 5.85597 1.58719 6.29537 3.69156L8.59628 14.7087C8.74085 15.401 8.5478 16.1212 8.07609 16.6484L0.575396 25.0392C-0.857217 26.6422 0.587189 29.144 2.69156 28.7046L13.7087 26.4037C14.401 26.2591 15.1212 26.4522 15.6484 26.9235L24.0392 34.4246C25.6422 35.8572 28.144 34.4128 27.7046 32.3084L25.4037 21.2913C25.2591 20.599 25.4522 19.8788 25.9235 19.3516L33.4246 10.9608ZM22.4048 18.6532C22.4048 21.8067 20.1022 24.2347 16.9758 24.2347C13.8345 24.2347 11.5729 21.791 11.5729 18.6532V13.3591C11.5729 12.4423 12.3158 11.6993 13.2326 11.6993H13.3894C14.3062 11.6993 15.0492 12.4423 15.0492 13.3591V18.6532C15.0492 20.0072 15.8978 20.7584 16.9758 20.7584C18.069 20.7584 18.9281 19.991 18.9281 18.6532V13.3591C18.9281 12.4423 19.6715 11.6993 20.5879 11.6993H20.7451C21.1854 11.6993 21.6073 11.874 21.9187 12.1855C22.2297 12.4965 22.4048 12.9188 22.4048 13.3591V18.6532Z" fill="white"/>
<line x1="51.35" y1="-1.5299e-08" x2="51.35" y2="36" stroke="white" stroke-width="0.7"/>
</svg>
