<svg width="325" height="59" viewBox="0 0 325 59" fill="none" xmlns="http://www.w3.org/2000/svg">
<path d="M122.688 46C118.644 46 115.51 44.8958 113.288 42.6874C111.096 40.4484 110 37.2738 110 33.1637V13.0582H115.788V32.6576C115.788 35.2648 116.375 37.2585 117.548 38.6387C118.752 40.0189 120.465 40.7091 122.688 40.7091C124.91 40.7091 126.608 40.0189 127.781 38.6387C128.985 37.2278 129.587 35.2341 129.587 32.6576V13.0582H135.375V33.1637C135.375 37.2738 134.28 40.4484 132.088 42.6874C129.896 44.8958 126.763 46 122.688 46Z" fill="#0E0E0E"/>
<path d="M156.811 45.2639V32.8877C156.811 31.7221 156.688 30.7406 156.441 29.9432C156.225 29.1457 155.885 28.5016 155.422 28.0108C154.99 27.4894 154.481 27.106 153.894 26.8606C153.307 26.6152 152.675 26.4926 151.995 26.4926C150.174 26.4926 148.77 27.1673 147.782 28.5169C146.794 29.8665 146.3 31.7528 146.3 34.1759H145.003C145.003 32.2436 145.189 30.5106 145.559 28.977C145.96 27.4127 146.531 26.1092 147.272 25.0663C148.044 23.9928 148.986 23.18 150.097 22.6279C151.208 22.0451 152.474 21.7537 153.894 21.7537C155.098 21.7537 156.209 21.9684 157.228 22.3978C158.247 22.7966 159.127 23.41 159.867 24.2382C160.608 25.0663 161.179 26.0938 161.581 27.3207C161.982 28.5169 162.183 29.9278 162.183 31.5534V45.2639H156.811ZM140.928 45.2639V22.2598H146.3V45.2639H140.928Z" fill="#0E0E0E"/>
<path d="M168.95 22.2598H174.599V45.2639H168.95V22.2598ZM168.394 15.3586C168.394 13.3802 169.784 12 171.775 12C173.766 12 175.109 13.3802 175.109 15.3586C175.109 17.3369 173.766 18.6712 171.775 18.6712C169.784 18.6712 168.394 17.3369 168.394 15.3586Z" fill="#0E0E0E"/>
<path d="M208.733 45.2639V32.8877C208.733 30.5873 208.348 28.9463 207.576 27.9648C206.835 26.9833 205.785 26.4926 204.427 26.4926C202.698 26.4926 201.34 27.1673 200.352 28.5169C199.364 29.8665 198.87 31.7528 198.87 34.1759H197.574C197.574 32.2436 197.759 30.5106 198.129 28.977C198.531 27.4127 199.102 26.1092 199.843 25.0663C200.584 23.9928 201.494 23.18 202.575 22.6279C203.686 22.0451 204.936 21.7537 206.326 21.7537C208.703 21.7537 210.586 22.5819 211.975 24.2382C213.395 25.8945 214.105 28.3329 214.105 31.5534V45.2639H208.733ZM193.499 45.2639V22.2598H198.87V45.2639H193.499ZM223.968 45.2639V32.8877C223.968 30.5873 223.582 28.9463 222.81 27.9648C222.069 26.9833 221.02 26.4926 219.662 26.4926C217.902 26.4926 216.528 27.1673 215.54 28.5169C214.583 29.8665 214.105 31.7528 214.105 34.1759H212.808C212.808 32.2436 212.994 30.5106 213.364 28.977C213.734 27.4127 214.29 26.1092 215.031 25.0663C215.803 23.9928 216.729 23.18 217.809 22.6279C218.921 22.0451 220.171 21.7537 221.56 21.7537C223.937 21.7537 225.82 22.5819 227.209 24.2382C228.629 25.8945 229.339 28.3329 229.339 31.5534V45.2639H223.968Z" fill="#0E0E0E"/>
<path d="M249.51 45.2639V30.3572C249.51 28.9157 249.093 27.8268 248.26 27.0907C247.457 26.3239 246.33 25.9405 244.88 25.9405C244.231 25.9405 243.629 26.0171 243.074 26.1705C242.549 26.3239 242.086 26.5539 241.684 26.8606C241.283 27.1673 240.959 27.5354 240.712 27.9648C240.465 28.3636 240.295 28.8236 240.203 29.3451H234.924C235.047 28.1795 235.356 27.1213 235.85 26.1705C236.375 25.2197 237.054 24.4069 237.887 23.7321C238.752 23.0573 239.771 22.5359 240.944 22.1678C242.117 21.7997 243.429 21.6157 244.88 21.6157C246.392 21.6157 247.766 21.8151 249.001 22.2138C250.236 22.6125 251.285 23.18 252.15 23.9161C253.014 24.6522 253.678 25.5417 254.141 26.5846C254.604 27.6274 254.835 28.8083 254.835 30.1272V45.2639H249.51ZM241.638 45.908C239.385 45.908 237.563 45.2945 236.174 44.0677C234.785 42.8101 234.09 41.1691 234.09 39.1448C234.09 37.8872 234.399 36.783 235.016 35.8322C235.634 34.8814 236.606 34.0839 237.934 33.4398C239.261 32.765 240.959 32.2589 243.027 31.9215C245.127 31.5841 247.673 31.4154 250.668 31.4154V35.1881C248.816 35.1881 247.195 35.2494 245.806 35.3721C244.417 35.4948 243.259 35.7095 242.333 36.0162C241.407 36.2923 240.697 36.6757 240.203 37.1664C239.74 37.6265 239.508 38.2246 239.508 38.9608C239.508 39.8809 239.832 40.6017 240.481 41.1231C241.16 41.6446 242.086 41.9053 243.259 41.9053C244.154 41.9053 244.972 41.7519 245.713 41.4452C246.485 41.1385 247.149 40.7091 247.704 40.157C248.26 39.5742 248.692 38.8994 249.001 38.1326C249.34 37.3658 249.51 36.5223 249.51 35.6022H250.575C250.575 37.2278 250.359 38.6847 249.927 39.9729C249.526 41.2612 248.924 42.35 248.121 43.2395C247.349 44.0983 246.408 44.7578 245.296 45.2179C244.216 45.6779 242.996 45.908 241.638 45.908Z" fill="#0E0E0E"/>
<path d="M258.022 26.8606V22.2598H273.396V26.8606H258.022ZM273.488 45.2639H269.043C266.543 45.2639 264.69 44.6811 263.486 43.5156C262.313 42.35 261.727 40.571 261.727 38.1786V15.3586H267.098V36.9364C267.098 38.2553 267.33 39.1908 267.793 39.7429C268.287 40.295 269.105 40.571 270.247 40.571H273.488V45.2639Z" fill="#0E0E0E"/>
<path d="M293.824 36.4763H299.334C299.242 37.8566 298.887 39.1295 298.269 40.295C297.652 41.4299 296.849 42.4267 295.862 43.2855C294.874 44.1137 293.716 44.7578 292.389 45.2179C291.092 45.6779 289.687 45.908 288.175 45.908C286.477 45.908 284.903 45.6013 283.452 44.9878C282.001 44.3744 280.751 43.5462 279.701 42.5034C278.651 41.4299 277.833 40.157 277.247 38.6847C276.691 37.1818 276.413 35.5408 276.413 33.7618C276.413 31.9829 276.707 30.3572 277.293 28.885C277.88 27.382 278.682 26.1092 279.701 25.0663C280.751 23.9928 282.001 23.1493 283.452 22.5359C284.903 21.9224 286.492 21.6157 288.221 21.6157C289.703 21.6157 291.092 21.8457 292.389 22.3058C293.716 22.7659 294.874 23.41 295.862 24.2382C296.849 25.0663 297.652 26.0631 298.269 27.2287C298.887 28.3942 299.242 29.6518 299.334 31.0014H293.824C293.762 30.2959 293.577 29.6671 293.268 29.115C292.96 28.5323 292.558 28.0415 292.064 27.6428C291.571 27.2134 290.999 26.8913 290.351 26.6766C289.703 26.4619 289.008 26.3545 288.267 26.3545C287.31 26.3545 286.431 26.5386 285.628 26.9066C284.856 27.244 284.193 27.7501 283.637 28.4249C283.081 29.069 282.649 29.8511 282.34 30.7713C282.063 31.6608 281.924 32.6576 281.924 33.7618C281.924 34.866 282.063 35.8782 282.34 36.7984C282.649 37.6879 283.081 38.4547 283.637 39.0988C284.193 39.7429 284.856 40.249 285.628 40.617C286.431 40.9544 287.31 41.1231 288.267 41.1231C289.008 41.1231 289.703 41.0158 290.351 40.8011C290.999 40.5864 291.571 40.2797 292.064 39.8809C292.558 39.4515 292.96 38.9608 293.268 38.4087C293.577 37.8259 293.762 37.1818 293.824 36.4763Z" fill="#0E0E0E"/>
<path d="M319.629 45.2639V32.8877C319.629 31.7221 319.505 30.7406 319.258 29.9432C319.042 29.1457 318.702 28.5016 318.239 28.0108C317.807 27.4894 317.298 27.106 316.711 26.8606C316.125 26.6152 315.492 26.4926 314.813 26.4926C312.991 26.4926 311.587 27.1673 310.599 28.5169C309.611 29.8665 309.117 31.7528 309.117 34.1759H307.821C307.821 32.2436 308.006 30.5106 308.376 28.977C308.778 27.4127 309.349 26.1092 310.09 25.0663C310.861 23.9928 311.803 23.18 312.914 22.6279C314.026 22.0451 315.291 21.7537 316.711 21.7537C317.915 21.7537 319.027 21.9684 320.045 22.3978C321.064 22.7966 321.944 23.41 322.685 24.2382C323.426 25.0663 323.997 26.0938 324.398 27.3207C324.799 28.5169 325 29.9278 325 31.5534V45.2639H319.629ZM303.746 45.2639V13.0582H309.117V45.2639H303.746Z" fill="#0E0E0E"/>
<line x1="84.35" y1="-1.5299e-08" x2="84.35" y2="59" stroke="#0E0E0E" stroke-width="0.7"/>
<path d="M54.0692 18.113C56.3867 15.52 54.0501 11.4729 50.646 12.1837L32.8242 15.9058C31.7043 16.1396 30.5392 15.8273 29.6864 15.065L16.113 2.93079C13.52 0.613326 9.4729 2.94986 10.1837 6.35399L13.9058 24.1758C14.1396 25.2957 13.8273 26.4608 13.0643 27.3136L0.930788 40.887C-1.38667 43.48 0.949865 47.5271 4.35399 46.8163L22.1758 43.0942C23.2957 42.8604 24.4608 43.1727 25.3136 43.935L38.887 56.0692C41.48 58.3867 45.5271 56.0501 44.8163 52.646L41.0942 34.8242C40.8604 33.7043 41.1727 32.5392 41.935 31.6864L54.0692 18.113ZM36.2431 30.5566C36.2431 35.6579 32.5182 39.5856 27.4608 39.5856C22.3793 39.5856 18.7208 35.6324 18.7208 30.5566V21.9926C18.7208 20.5096 19.9227 19.3078 21.4057 19.3078H21.6594C23.1424 19.3078 24.3442 20.5096 24.3442 21.9926V30.5566C24.3442 32.7469 25.717 33.9622 27.4608 33.9622C29.2293 33.9622 30.619 32.7208 30.619 30.5566V21.9926C30.619 20.5096 31.8216 19.3078 33.3039 19.3078H33.5583C34.2705 19.3078 34.953 19.5904 35.4567 20.0941C35.9598 20.5972 36.2431 21.2804 36.2431 21.9926V30.5566Z" fill="#0E0E0E"/>
</svg>
