<svg width="55" height="55" viewBox="0 0 55 55" fill="none" xmlns="http://www.w3.org/2000/svg">
<path d="M54.0692 16.113C56.3867 13.52 54.0501 9.4729 50.646 10.1837L32.8242 13.9058C31.7043 14.1396 30.5392 13.8273 29.6864 13.065L16.113 0.930788C13.52 -1.38667 9.4729 0.949864 10.1837 4.35399L13.9058 22.1758C14.1396 23.2957 13.8273 24.4608 13.0643 25.3136L0.930788 38.887C-1.38667 41.48 0.949864 45.5271 4.35399 44.8163L22.1758 41.0942C23.2957 40.8604 24.4608 41.1727 25.3136 41.935L38.887 54.0692C41.48 56.3867 45.5271 54.0501 44.8163 50.646L41.0942 32.8242C40.8604 31.7043 41.1727 30.5392 41.935 29.6864L54.0692 16.113ZM36.2431 28.5566C36.2431 33.6579 32.5182 37.5856 27.4608 37.5856C22.3793 37.5856 18.7208 33.6324 18.7208 28.5566V19.9926C18.7208 18.5096 19.9227 17.3078 21.4057 17.3078H21.6594C23.1424 17.3078 24.3442 18.5096 24.3442 19.9926V28.5566C24.3442 30.7469 25.717 31.9622 27.4608 31.9622C29.2293 31.9622 30.619 30.7208 30.619 28.5566V19.9926C30.619 18.5096 31.8216 17.3078 33.3039 17.3078H33.5583C34.2704 17.3078 34.953 17.5904 35.4567 18.0941C35.9598 18.5972 36.2431 19.2804 36.2431 19.9926V28.5566Z" fill="#0E0E0E"/>
</svg>
